PathFileType	4	(X/Y/Z)	/mnt/D494C4CF94C4B4F0/Trampoline_predictions/poses3d/1_partie_0429_002.trc
DataRate	CameraRate	NumFrames	NumMarkers	Units	OrigDataRate	OrigDataStartFrame	OrigNumFrames
120	120	7	17	m	120	315	1261
Frame#	Time	Nose			L Eye			R Eye			L Ear			R Ear			L Shoulder			R Shoulder			L Elbow			R Elbow			L Wrist			R Wrist			L Hip			R Hip			L Knee			R Knee			L Ankle			R Ankle			
		X1	Y1	Z1	X2	Y2	Z2	X3	Y3	Z3	X4	Y4	Z4	X5	Y5	Z5	X6	Y6	Z6	X7	Y7	Z7	X8	Y8	Z8	X9	Y9	Z9	X10	Y10	Z10	X11	Y11	Z11	X12	Y12	Z12	X13	Y13	Z13	X14	Y14	Z14	X15	Y15	Z15	X16	Y16	Z16	X17	Y17	Z17	
315	2.625	-0.013394518928941244	-0.07478016814040331	2.7065260454190256	-0.005680729119932023	-0.09477545637858863	2.752360342311917	-0.008780775115635334	-0.04304680161867659	2.756416256247546	0.0711516026681694	-0.1325281801679633	2.7923870575225433	0.06497086683257595	-0.0007505422013741735	2.7988701916033127	0.1728814232241523	-0.22631181362040448	2.671571050096254	0.19629024902650458	0.08288748412995063	2.692208070802214	0.044340712690997486	-0.30293833818210875	2.4701275965284855	0.08535233150953699	0.18729938865118984	2.4768371237619906	-0.10201668462095785	-0.38653833589450637	2.3051513597672155	-0.04742472786470131	0.25608837685171965	2.271532684058187	0.5819780489291084	-0.20256277414578686	2.443262858306396	0.6240392016892784	-0.028877731095613174	2.4593680977490404	0.5835558130192786	-0.22233314568652687	2.04536840446387	0.6210922051781611	0.0050404024869609215	2.043852865541458	0.6511537148202077	-0.2507113198606472	1.692724933490944	0.6743777114068933	0.01496747781076467	1.6975771136341669
316	2.6333333333333333	-0.003777847962882091	-0.0751420783614054	2.6506063107818156	0.005371909004992342	-0.0948884228451771	2.6958981906248756	0.0050408010827574104	-0.04612949845460279	2.698949607863407	0.07952056272622898	-0.1323474866379085	2.7387664740107134	0.08090352774438017	-0.0031332382989824434	2.742407482936412	0.17788531000688737	-0.22395314603926142	2.6227567863086385	0.19873855820090042	0.08294932381142857	2.631864160016619	0.03941499206942042	-0.3087470006770663	2.4379573539491672	0.07061754006344867	0.1962235390436416	2.424701048616986	-0.13452818871386923	-0.3911176995338122	2.2896711286224503	-0.08376434241029844	0.24516808125197556	2.2437353976019834	0.5832089367866715	-0.19990587016789502	2.3791264315728538	0.6155372081712218	-0.024950793201961415	2.3881608626673105	0.570426093460208	-0.22429746642740778	1.9903769990300737	0.6029789298830085	0.010136992023527564	1.9869829589365033	0.627305987057205	-0.25641360345551895	1.6334692528580965	0.6542558575284323	0.019724560418125345	1.618530996474443
317	2.6416666666666666	0.004289456137876295	-0.06746050858965869	2.597059732329279	0.013807368962218233	-0.08926828316563956	2.644388955860572	0.011782654738779024	-0.0370037844280516	2.64519304941	0.08949996636053542	-0.12728336041363159	2.690449178865677	0.08692934546646182	0.011742333507832017	2.6873796846916522	0.19420632917757297	-0.22698066961273014	2.5743222677845172	0.20244711495559214	0.08333448916662949	2.5724320786250745	0.03265341456691205	-0.30532147304700996	2.404294870892483	0.04357310161991281	0.18719222736680227	2.377588293485102	-0.146605019375741	-0.38965274206717226	2.2753987928507655	-0.13135590622115945	0.26131178611866096	2.236733924223904	0.5835606679839487	-0.20356585540749672	2.315639739107074	0.6073225864575839	-0.031119338118422088	2.3178160430640897	0.5452760061543382	-0.22533232455170676	1.9326681145950173	0.5749727250122897	0.006251321845782195	1.9173389967981052	0.6001629939792301	-0.24889094790997587	1.5674607028377203	0.614904280349742	0.010228107246365822	1.5625241775286831
318	2.65	0.008049007836975763	-0.06237845312636556	2.5652903323100156	0.02066650127395927	-0.08215605441570316	2.609967313444	0.023686455381080822	-0.03259646111918023	2.609832572397087	0.09885862697635397	-0.11830772751295188	2.646730113551966	0.1030234132008373	0.0064098369419576025	2.6443543021312816	0.1962044395560952	-0.22246142865785043	2.517532983551606	0.2195612802795677	0.07094330973585385	2.51864213649096	0.03816076665621435	-0.31304103635442715	2.3681859432719943	0.04902196075341838	0.17662138456548834	2.3348111702715166	-0.17049477454577477	-0.3826968630394158	2.2685924718078545	-0.1490660421134622	0.23526087720353922	2.213618726493817	0.5810633941721376	-0.2004713326356874	2.2271042956637284	0.6227111042422496	-0.04231454878105257	2.245720287018521	0.5230872244553226	-0.21821355414588056	1.8530623478867028	0.5548483130618663	0.007951517959425933	1.8536635661528214	0.5880470004390791	-0.2513279153157871	1.5101955653171821	0.5942487613439579	0.0033096993146863912	1.518961816601751
319	2.658333333333333	0.025152972370531525	-0.07222822299829887	2.5127775121531646	0.0327392448945822	-0.09101825352376551	2.554669134993184	0.03909019290446523	-0.04369008207154391	2.5568853106697738	0.10524149301759274	-0.12250905907955138	2.59323026121191	0.11824642744214138	-0.005225969671744867	2.5959902621439834	0.20030714355397033	-0.22507026649369205	2.464293938698205	0.23779214707073792	0.06064213616365327	2.4701539557750976	0.004766483792624128	-0.32123377423728333	2.313021451409372	0.039309017561569834	0.16185049558210246	2.3126788294858818	-0.2021679478206809	-0.3859644652291872	2.2641254702520923	-0.16637567847228643	0.22798064184801337	2.2185577150882003	0.5786174645097015	-0.19322850900516786	2.164272299022178	0.6249832509927743	-0.03968282567674474	2.178320512195198	0.5040001727772037	-0.22138071640045953	1.781481152114516	0.5390837868300153	0.007329961956199055	1.789570201866226	0.5625922975772171	-0.2607507800859932	1.4453220020318074	0.5743221434469026	-0.0026063333207700236	1.42990665863535
320	2.6666666666666665	0.04157769642360902	-0.0820149330899709	2.457532242645574	0.052206218123495664	-0.09721525316649941	2.5008093730893486	0.05455535800948207	-0.054397208260546476	2.501905353598979	0.13504427762709642	-0.13131923582773417	2.5327859758934963	0.1349985913109138	-0.01609719208528147	2.5329787891310205	0.21825258797451483	-0.2295515746932291	2.4111381112354597	0.2454725968262649	0.0531147052364339	2.408593389455486	0.00871458398274584	-0.33179990734689935	2.2764954643276445	0.03363017464534846	0.1519015721027021	2.2645767079963686	-0.20466151284048356	-0.36962242398167494	2.2606794603057074	-0.1766940725736062	0.21381460464544227	2.199295893940318	0.5781485802665215	-0.18784054147669088	2.085686259987328	0.6133060919017771	-0.039136096953589744	2.097355816880628	0.49154794894148096	-0.2180449434501167	1.7083009835200855	0.5180542022902782	0.008221187814517113	1.7033382878253593	0.5382440315581923	-0.23958817356098355	1.35687229217205	0.5554435143470204	0.013282944103432703	1.350954430918126
321	2.675	0.055189141820861085	-0.08495208119760161	2.409219682550212	0.06734206809623437	-0.10462205160635643	2.4522794580951275	0.06944717981192723	-0.05177126367815359	2.4541514585010997	0.14937053454390695	-0.1460313150371668	2.484495823670578	0.15253776565839627	-0.012466781131577846	2.484678495920426	0.2255974811042801	-0.23460890387273392	2.3515586038115592	0.25283040605106577	0.05867200723426534	2.352758905284843	-0.009819754699328815	-0.33875214119780317	2.2410409184859534	0.028252474352182217	0.13902952489183437	2.235758853728294	-0.22562817130863452	-0.3476841915277456	2.265604671769176	-0.19068865356118167	0.20428489984582424	2.197645864000597	0.5727519085070202	-0.19717836943320405	2.0172820157156997	0.6026405290903355	-0.0295598178715025	2.026102997811099	0.4760072325918911	-0.22438173147878812	1.6366078364674546	0.5047375456935301	0.012323081755125294	1.646275457656691	0.5237324593224991	-0.24458939329527202	1.2900163794728534	0.5360381714111757	0.02715691867531437	1.275497321460387
